<svg xmlns="http://www.w3.org/2000/svg" xmlns:xlink="http://www.w3.org/1999/xlink" display="block" class="plt-container" width="1200.0" height="350.0">
  <style type="text/css">
  .plt-container {
   font-family: sans-serif;
   user-select: none;
   -webkit-user-select: none;
   -moz-user-select: none;
   -ms-user-select: none;
}
text {
   text-rendering: optimizeLegibility;
}
#p3bCEqV .plot-title {
fill: #474747;
font-weight: normal;
   font-style: normal;font-family: sans-serif;
font-size: 19.599999999999998px;

}
#p3bCEqV .plot-subtitle {
fill: #474747;
font-weight: normal;
   font-style: normal;font-family: sans-serif;
font-size: 15.0px;

}
#p3bCEqV .plot-caption {
fill: #474747;
font-weight: normal;
   font-style: normal;font-family: sans-serif;
font-size: 13.0px;

}
#p3bCEqV .hyperlink-element {
fill: #118ed8;
font-weight: normal;
   font-style: normal;
}
#p3bCEqV .legend-title {
fill: #474747;
font-weight: normal;
   font-style: normal;font-family: sans-serif;
font-size: 16.8px;

}
#p3bCEqV .legend-item {
fill: #474747;
font-weight: normal;
   font-style: normal;font-family: sans-serif;
font-size: 12.6px;

}
#p3bCEqV .axis-title-x {
fill: #474747;
font-weight: normal;
   font-style: normal;font-family: sans-serif;
font-size: 16.8px;

}
#p3bCEqV .axis-text-x {
fill: #474747;
font-weight: normal;
   font-style: normal;font-family: sans-serif;
font-size: 14.0px;

}
#dVX5EMk .axis-tooltip-text-x {
fill: #ffffff;
font-weight: normal;
   font-style: normal;font-family: sans-serif;
font-size: 13.0px;

}
#p3bCEqV .axis-title-y {
fill: #474747;
font-weight: normal;
   font-style: normal;font-family: sans-serif;
font-size: 16.8px;

}
#p3bCEqV .axis-text-y {
fill: #474747;
font-weight: normal;
   font-style: normal;font-family: sans-serif;
font-size: 14.0px;

}
#dVX5EMk .axis-tooltip-text-y {
fill: #ffffff;
font-weight: normal;
   font-style: normal;font-family: sans-serif;
font-size: 13.0px;

}
#p3bCEqV .facet-strip-text-x {
fill: #474747;
font-weight: normal;
   font-style: normal;font-family: sans-serif;
font-size: 13.0px;

}
#p3bCEqV .facet-strip-text-y {
fill: #474747;
font-weight: normal;
   font-style: normal;font-family: sans-serif;
font-size: 13.0px;

}
#dVX5EMk .tooltip-text {
fill: #474747;
font-weight: normal;
   font-style: normal;font-family: sans-serif;
font-size: 13.0px;

}
#dVX5EMk .tooltip-title {
fill: #474747;
font-weight: bold;
   font-style: normal;font-family: sans-serif;
font-size: 13.0px;

}
#dVX5EMk .tooltip-label {
fill: #474747;
font-weight: bold;
   font-style: normal;font-family: sans-serif;
font-size: 13.0px;

}

  </style>
  <g id="p3bCEqV">
    <path fill-rule="evenodd" fill="rgb(255,255,255)" fill-opacity="1.0" d="M0.0 0.0 L0.0 350.0 L1200.0 350.0 L1200.0 0.0 Z">
    </path>
    <g transform="translate(22.0 6.0 ) ">
      <g>
        <g transform="translate(37.24725334311496 19.0 ) ">
          <g>
            <line x1="23.472257407234043" y1="0.0" x2="23.472257407234043" y2="283.0" stroke="rgb(233,233,233)" stroke-opacity="1.0" stroke-width="1.0" fill="none">
            </line>
            <line x1="91.01832188848309" y1="0.0" x2="91.01832188848309" y2="283.0" stroke="rgb(233,233,233)" stroke-opacity="1.0" stroke-width="1.0" fill="none">
            </line>
            <line x1="158.56438636973215" y1="0.0" x2="158.56438636973215" y2="283.0" stroke="rgb(233,233,233)" stroke-opacity="1.0" stroke-width="1.0" fill="none">
            </line>
            <line x1="226.11045085098118" y1="0.0" x2="226.11045085098118" y2="283.0" stroke="rgb(233,233,233)" stroke-opacity="1.0" stroke-width="1.0" fill="none">
            </line>
            <line x1="293.65651533223024" y1="0.0" x2="293.65651533223024" y2="283.0" stroke="rgb(233,233,233)" stroke-opacity="1.0" stroke-width="1.0" fill="none">
            </line>
            <line x1="361.20257981347925" y1="0.0" x2="361.20257981347925" y2="283.0" stroke="rgb(233,233,233)" stroke-opacity="1.0" stroke-width="1.0" fill="none">
            </line>
            <line x1="428.7486442947283" y1="0.0" x2="428.7486442947283" y2="283.0" stroke="rgb(233,233,233)" stroke-opacity="1.0" stroke-width="1.0" fill="none">
            </line>
            <line x1="496.29470877597737" y1="0.0" x2="496.29470877597737" y2="283.0" stroke="rgb(233,233,233)" stroke-opacity="1.0" stroke-width="1.0" fill="none">
            </line>
          </g>
        </g>
        <g transform="translate(37.24725334311496 19.0 ) ">
          <g>
            <line x1="0.0" y1="275.56405830456464" x2="516.3896629591488" y2="275.56405830456464" stroke="rgb(233,233,233)" stroke-opacity="1.0" stroke-width="1.0" fill="none">
            </line>
            <line x1="0.0" y1="234.12607664679012" x2="516.3896629591488" y2="234.12607664679012" stroke="rgb(233,233,233)" stroke-opacity="1.0" stroke-width="1.0" fill="none">
            </line>
            <line x1="0.0" y1="192.6880949890156" x2="516.3896629591488" y2="192.6880949890156" stroke="rgb(233,233,233)" stroke-opacity="1.0" stroke-width="1.0" fill="none">
            </line>
            <line x1="0.0" y1="151.25011333124107" x2="516.3896629591488" y2="151.25011333124107" stroke="rgb(233,233,233)" stroke-opacity="1.0" stroke-width="1.0" fill="none">
            </line>
            <line x1="0.0" y1="109.81213167346655" x2="516.3896629591488" y2="109.81213167346655" stroke="rgb(233,233,233)" stroke-opacity="1.0" stroke-width="1.0" fill="none">
            </line>
            <line x1="0.0" y1="68.37415001569204" x2="516.3896629591488" y2="68.37415001569204" stroke="rgb(233,233,233)" stroke-opacity="1.0" stroke-width="1.0" fill="none">
            </line>
            <line x1="0.0" y1="26.936168357917524" x2="516.3896629591488" y2="26.936168357917524" stroke="rgb(233,233,233)" stroke-opacity="1.0" stroke-width="1.0" fill="none">
            </line>
          </g>
        </g>
      </g>
      <g clip-path="url(#c2IiTmV)" clip-bounds-jfx="[rect (37.24725334311496, 19.0), (516.3896629591488, 283.0)]">
        <g transform="translate(37.24725334311496 19.0 ) ">
          <g>
            <g>
              <g>
                <path d="M23.472257407234043 264.46830245526064 L23.472257407234043 264.46830245526064 L26.849560631296495 259.49076712099344 L30.226863855358946 251.71336816120092 L33.6041670794214 243.52117459021946 L36.98147030348385 232.21802143532102 L40.358773527546305 226.6182941842704 L43.736076751608756 218.8408952244779 L47.11337997567121 214.900346418183 L50.49068319973366 207.84883802797114 L53.86798642379611 201.73061751293437 L57.24528964785857 190.11636839964422 L60.622592871921015 186.48691555174105 L63.99989609598347 181.30198291187935 L67.37719932004592 174.14677586887024 L70.75450254410838 155.99951162935437 L74.13180576817082 147.59992075277847 L77.50910899223328 137.8522473898385 L80.88641221629572 134.01539723634087 L84.26371544035818 128.72676594368195 L87.64101866442063 83.61785197688536 L91.01832188848309 61.73743623666911 L94.39562511254553 61.530038931074614 L97.77292833660799 66.19647830695013 L101.15023156067043 73.24798669716202 L104.5275347847329 80.19579643457666 L107.90483800879534 81.64757757373792 L111.2821412328578 85.38072907443834 L114.65944445692024 88.59538731115256 L118.0367476809827 93.67662129821701 L121.41405090504514 95.1284024373783 L124.7913541291076 95.54319704856724 L128.16865735317006 99.79484181325378 L131.5459605772325 106.43155559227674 L134.92326380129498 108.40182999542418 L138.30056702535742 109.95730978738268 L141.67787024941987 113.27566667689413 L145.0551734734823 113.89785859367757 L148.4324766975448 116.07553030241948 L151.80977992160723 113.58676263528585 L155.18708314566967 114.52005051046098 L158.56438636973215 118.97909258074202 L161.9416895937946 119.91238045591712 L165.31899281785704 121.36416159507837 L168.69629604191948 118.87539392794477 L172.07359926598195 121.46786024787562 L175.4509024900444 126.03060097095388 L178.82820571410684 126.54909423494004 L182.2055089381693 125.61580635976495 L185.58281216223176 128.2082726796958 L188.9601153862942 130.3859443884377 L192.33741861035665 134.22279454193534 L195.71472183441912 133.185808013963 L199.09202505848157 132.14882148599065 L202.469328282544 134.7412878059215 L205.84663150660646 137.74854873704126 L209.22393473066893 135.88197298669107 L212.60123795473137 136.71156220906892 L215.97854117879382 136.71156220906892 L219.35584440285626 138.57813795941914 L222.73314762691874 136.71156220906892 L226.11045085098118 136.81526086186616 L229.48775407504363 137.12635682025788 L232.86505729910607 137.64485008424404 L236.24236052316854 137.74854873704126 L239.619663747231 138.57813795941914 L242.99696697129343 140.13361775137764 L246.3742701953559 140.3410150569721 L249.75157341941835 138.05964469543298 L253.1288766434808 140.02991909858042 L256.5061798675432 140.8595083209583 L259.8834830916057 141.58539889053893 L263.26078631566816 140.2373164041749 L266.6380895397306 141.06690562655274 L270.01539276379305 141.58539889053893 L273.3926959878555 141.17060427934996 L276.76999921191793 143.24457733529465 L280.1473024359804 140.02991909858042 L283.5246056600429 142.8297827241057 L286.9019088841053 145.00745443284762 L290.27921210816777 144.48896116886147 L293.65651533223024 144.28156386326697 L297.03381855629266 147.59992075277847 L300.41112178035513 148.94800323914248 L303.7884250044176 150.08868841991205 L307.16572822848 152.16266147585674 L310.5430314525425 156.9327995045295 L313.9203346766049 157.8660873797046 L317.2976379006674 157.6586900741101 L320.67494112472986 158.28088199089353 L324.05224434879227 158.9030739076769 L327.42954757285474 161.28814292201326 L330.8068507969172 160.45855369963542 L334.18415402097963 161.49554022760776 L337.5614572450421 164.60649981152477 L340.9387604691045 165.9545822978888 L344.316063693167 166.16197960348325 L347.69336691722947 167.51006208984728 L351.0706701412919 167.09526747865837 L354.44797336535436 165.7471849922943 L357.82527658941683 164.39910250593027 L361.20257981347925 165.7471849922943 L364.5798830375417 165.7471849922943 L367.9571862616042 167.61376074264453 L371.3344894856666 167.1989661314556 L374.7117927097291 166.36937690907774 L378.0890959337915 168.4433499650224 L381.46639915785397 169.89513110418366 L384.84370238191644 172.28020011852004 L388.22100560597886 172.59129607691173 L391.59830883004133 174.9763650912481 L394.9756120541038 178.29472198075956 L398.3529152781662 181.8204761758655 L401.7302185022287 186.90171016292996 L405.10752172629117 189.70157378845528 L408.4848249503536 192.9162320251695 L411.86212817441606 198.1011646650312 L415.2394313984785 205.8785636248237 L418.61673462254095 213.65596258461622 L421.9940378466034 225.89240361468978 L425.37134107066584 233.56610392168506 L428.7486442947283 238.75103656154673 L432.1259475187908 239.37322847833013 L435.5032507428532 233.66980257448228 L438.88055396691567 231.07733625455145 L442.2578571909781 229.52185646259295 L445.63516041504056 229.0033631986068 L449.01246363910303 230.5588429905653 L452.38976686316545 231.38843221294314 L455.7670700872279 232.01062412972655 L459.1443733112904 232.84021335210443 L462.5216765353528 234.39569314406293 L465.8989797594153 235.43267967203525 L469.27628298347776 237.19555676958822 L472.6535862075402 238.0251459919661 L476.03088943160265 239.78802308951907 L479.40819265566506 242.89898267343608 L482.78549587972753 250.26158702203966 L486.16279910379 254.61693043952346 L489.5401023278524 260.9425482601547 L492.9174055519149 264.77939841365236 " fill="none" stroke-width="3.3000000000000003" stroke="rgb(42,31,63)" stroke-opacity="0.6980392156862745">
                </path>
              </g>
              <g>
                <path d="M23.472257407234043 270.1363636363636 L23.472257407234043 270.1363636363636 L26.849560631296495 266.5836907626321 L30.226863855358946 262.9323325312969 L33.6041670794214 259.28097429996166 L36.98147030348385 251.5835164068766 L40.358773527546305 247.2413606723158 L43.736076751608756 243.39263172577327 L47.11337997567121 241.1228685008892 L50.49068319973366 236.48465669351748 L53.86798642379611 231.4517034557311 L57.24528964785857 224.9384698538899 L60.622592871921015 223.35950413223142 L63.99989609598347 219.3134044704816 L67.37719932004592 214.77387802071348 L70.75450254410838 201.64872545942742 L74.13180576817082 194.7407504271716 L77.50910899223328 189.31305575897062 L80.88641221629572 186.94460717648292 L84.26371544035818 183.490619660355 L87.64101866442063 148.95074449907594 L91.01832188848309 93.39088816821845 L94.39562511254553 121.61490044286364 L97.77292833660799 134.64136764654603 L101.15023156067043 141.4506573211982 L104.5275347847329 147.56914949262477 L107.90483800879534 149.83891271750883 L111.2821412328578 147.9638909230394 L114.65944445692024 143.02962304285666 L118.0367476809827 148.25994699585033 L121.41405090504514 150.72708093594173 L124.7913541291076 156.45083167695367 L128.16865735317006 158.72059490183773 L131.5459605772325 161.38509955713639 L134.92326380129498 163.3588067092095 L138.30056702535742 162.2732677755693 L141.67787024941987 159.60876312027062 L145.0551734734823 159.214021689856 L148.4324766975448 163.26012135160585 L151.80977992160723 160.89167276911814 L155.18708314566967 163.45749206681313 L158.56438636973215 163.45749206681313 L161.9416895937946 168.9838720926178 L165.31899281785704 164.54303100045334 L168.69629604191948 166.71410886773373 L172.07359926598195 171.74706210552011 L175.4509024900444 170.36546709906895 L178.82820571410684 168.49044530459952 L182.2055089381693 168.29307458939223 L185.58281216223176 170.85889388708722 L188.9601153862942 169.1812428078251 L192.33741861035665 170.56283781427626 L195.71472183441912 170.4641524566726 L199.09202505848157 173.7207692575932 L202.469328282544 176.5826446280992 L205.84663150660646 175.8918471248736 L209.22393473066893 175.0036789064407 L212.60123795473137 176.0892178400809 L215.97854117879382 179.54320535620883 L219.35584440285626 181.61559786588555 L222.73314762691874 178.35898106496495 L226.11045085098118 176.87870070091014 L229.48775407504363 169.3786135230324 L232.86505729910607 175.8918471248736 L236.24236052316854 178.95109321058692 L239.619663747231 181.22085643547095 L242.99696697129343 178.65503713777593 L246.3742701953559 177.86555427694668 L249.75157341941835 182.2077100115075 L253.1288766434808 184.28010252118423 L256.5061798675432 179.54320535620883 L259.8834830916057 183.490619660355 L263.26078631566816 184.1814171635806 L266.6380895397306 183.2932489451477 L270.01539276379305 187.4380339645012 L273.3926959878555 188.32620218293408 L276.76999921191793 190.3985946926108 L280.1473024359804 188.32620218293408 L283.5246056600429 191.2867629110437 L286.9019088841053 191.38544826864737 L290.27921210816777 193.85258220873874 L293.65651533223024 193.06309934790949 L297.03381855629266 194.93812114237892 L300.41112178035513 196.31971614883008 L303.7884250044176 197.4052550824703 L307.16572822848 197.30656972486662 L310.5430314525425 199.47764759214704 L313.9203346766049 197.9973672280922 L317.2976379006674 195.6289186456045 L320.67494112472986 197.7999965128849 L324.05224434879227 199.87238902256166 L327.42954757285474 201.84609617463474 L330.8068507969172 201.4513547442201 L334.18415402097963 201.64872545942742 L337.5614572450421 201.94478153223838 L340.9387604691045 202.5368936778603 L344.316063693167 204.1158593995188 L347.69336691722947 203.32637653868954 L351.0706701412919 205.79351047878092 L354.44797336535436 208.16195906126862 L357.82527658941683 208.55670049168324 L361.20257981347925 209.64223942532345 L364.5798830375417 211.31989050458554 L367.9571862616042 210.72777835896363 L371.3344894856666 212.20805872301844 L374.7117927097291 212.70148551103674 L378.0890959337915 212.9975415838477 L381.46639915785397 212.9975415838477 L384.84370238191644 213.194912299055 L388.22100560597886 217.43838267601214 L391.59830883004133 218.91866304006697 L394.9756120541038 220.69499947693274 L398.3529152781662 223.45818948983506 L401.7302185022287 221.8792237681766 L405.10752172629117 224.83978449628623 L408.4848249503536 228.29377201241414 L411.86212817441606 231.55038881333473 L415.2394313984785 232.53724238937127 L418.61673462254095 236.48465669351748 L421.9940378466034 238.26099313038324 L425.37134107066584 243.39263172577327 L428.7486442947283 254.14933570457163 L432.1259475187908 253.16248212853506 L435.5032507428532 249.80717997001082 L438.88055396691567 247.9321581755414 L442.2578571909781 245.85976566586464 L445.63516041504056 245.76108030826097 L449.01246363910303 246.05713638107196 L452.38976686316545 246.3531924538829 L455.7670700872279 246.55056316909022 L459.1443733112904 247.14267531471214 L462.5216765353528 247.73478746033408 L465.8989797594153 248.82032639397428 L469.27628298347776 249.51112389719987 L472.6535862075402 250.00455068521813 L476.03088943160265 252.17562855249852 L479.40819265566506 253.754594274157 L482.78549587972753 259.6757157303763 L486.16279910379 262.24153502807127 L489.5401023278524 266.68237612023574 L492.9174055519149 270.1363636363636 " fill="none" stroke-width="3.3000000000000003" stroke="rgb(167,103,148)" stroke-opacity="0.6980392156862745">
                </path>
              </g>
            </g>
            <g>
              <line x1="91.01832188848309" y1="283.0" x2="91.01832188848309" y2="0.0" stroke="rgb(71,71,71)" stroke-opacity="1.0" fill="none" stroke-width="1.6500000000000001">
              </line>
            </g>
            <g>
              <line x1="428.7486442947283" y1="283.0" x2="428.7486442947283" y2="0.0" stroke="rgb(71,71,71)" stroke-opacity="1.0" fill="none" stroke-width="1.6500000000000001">
              </line>
            </g>
          </g>
        </g>
        <defs>
          <clipPath id="cO0UKLc">
            <rect x="37.24725334311496" y="19.0" width="516.3896629591488" height="283.0">
            </rect>
          </clipPath>
        </defs>
        <defs>
          <clipPath id="ceqheU7">
            <rect x="37.24725334311496" y="19.0" width="516.3896629591488" height="283.0">
            </rect>
          </clipPath>
        </defs>
        <defs>
          <clipPath id="c2IiTmV">
            <rect x="37.24725334311496" y="19.0" width="516.3896629591488" height="283.0">
            </rect>
          </clipPath>
        </defs>
      </g>
      <g>
        <g transform="translate(37.24725334311496 302.0 ) ">
          <g transform="translate(23.472257407234043 0.0 ) ">
            <line stroke-width="1.0" stroke="rgb(71,71,71)" stroke-opacity="1.0" x2="0.0" y2="4.0">
            </line>
            <g transform="translate(0.0 6.0 ) ">
              <text class="axis-text-x" text-anchor="middle" dy="0.7em" y="0.0">
                <tspan>0</tspan>
              </text>
            </g>
          </g>
          <g transform="translate(91.01832188848309 0.0 ) ">
            <line stroke-width="1.0" stroke="rgb(71,71,71)" stroke-opacity="1.0" x2="0.0" y2="4.0">
            </line>
            <g transform="translate(0.0 6.0 ) ">
              <text class="axis-text-x" text-anchor="middle" dy="0.7em" y="0.0">
                <tspan>20</tspan>
              </text>
            </g>
          </g>
          <g transform="translate(158.56438636973215 0.0 ) ">
            <line stroke-width="1.0" stroke="rgb(71,71,71)" stroke-opacity="1.0" x2="0.0" y2="4.0">
            </line>
            <g transform="translate(0.0 6.0 ) ">
              <text class="axis-text-x" text-anchor="middle" dy="0.7em" y="0.0">
                <tspan>40</tspan>
              </text>
            </g>
          </g>
          <g transform="translate(226.11045085098118 0.0 ) ">
            <line stroke-width="1.0" stroke="rgb(71,71,71)" stroke-opacity="1.0" x2="0.0" y2="4.0">
            </line>
            <g transform="translate(0.0 6.0 ) ">
              <text class="axis-text-x" text-anchor="middle" dy="0.7em" y="0.0">
                <tspan>60</tspan>
              </text>
            </g>
          </g>
          <g transform="translate(293.65651533223024 0.0 ) ">
            <line stroke-width="1.0" stroke="rgb(71,71,71)" stroke-opacity="1.0" x2="0.0" y2="4.0">
            </line>
            <g transform="translate(0.0 6.0 ) ">
              <text class="axis-text-x" text-anchor="middle" dy="0.7em" y="0.0">
                <tspan>80</tspan>
              </text>
            </g>
          </g>
          <g transform="translate(361.20257981347925 0.0 ) ">
            <line stroke-width="1.0" stroke="rgb(71,71,71)" stroke-opacity="1.0" x2="0.0" y2="4.0">
            </line>
            <g transform="translate(0.0 6.0 ) ">
              <text class="axis-text-x" text-anchor="middle" dy="0.7em" y="0.0">
                <tspan>100</tspan>
              </text>
            </g>
          </g>
          <g transform="translate(428.7486442947283 0.0 ) ">
            <line stroke-width="1.0" stroke="rgb(71,71,71)" stroke-opacity="1.0" x2="0.0" y2="4.0">
            </line>
            <g transform="translate(0.0 6.0 ) ">
              <text class="axis-text-x" text-anchor="middle" dy="0.7em" y="0.0">
                <tspan>120</tspan>
              </text>
            </g>
          </g>
          <g transform="translate(496.29470877597737 0.0 ) ">
            <line stroke-width="1.0" stroke="rgb(71,71,71)" stroke-opacity="1.0" x2="0.0" y2="4.0">
            </line>
            <g transform="translate(0.0 6.0 ) ">
              <text class="axis-text-x" text-anchor="middle" dy="0.7em" y="0.0">
                <tspan>140</tspan>
              </text>
            </g>
          </g>
          <line x1="0.0" y1="0.0" x2="516.3896629591488" y2="0.0" stroke-width="1.0" stroke="rgb(71,71,71)" stroke-opacity="1.0">
          </line>
        </g>
        <g transform="translate(37.24725334311496 19.0 ) ">
          <g transform="translate(0.0 275.56405830456464 ) ">
            <line stroke-width="0.5" stroke="rgb(0,0,0)" stroke-opacity="1.0" x2="-4.0" y2="0.0">
            </line>
            <g transform="translate(-6.0 0.0 ) ">
              <text class="axis-text-y" text-anchor="end" dy="0.35em" y="0.0">
                <tspan>0</tspan>
              </text>
            </g>
          </g>
          <g transform="translate(0.0 234.12607664679012 ) ">
            <line stroke-width="0.5" stroke="rgb(0,0,0)" stroke-opacity="1.0" x2="-4.0" y2="0.0">
            </line>
            <g transform="translate(-6.0 0.0 ) ">
              <text class="axis-text-y" text-anchor="end" dy="0.35em" y="0.0">
                <tspan>0.05</tspan>
              </text>
            </g>
          </g>
          <g transform="translate(0.0 192.6880949890156 ) ">
            <line stroke-width="0.5" stroke="rgb(0,0,0)" stroke-opacity="1.0" x2="-4.0" y2="0.0">
            </line>
            <g transform="translate(-6.0 0.0 ) ">
              <text class="axis-text-y" text-anchor="end" dy="0.35em" y="0.0">
                <tspan>0.1</tspan>
              </text>
            </g>
          </g>
          <g transform="translate(0.0 151.25011333124107 ) ">
            <line stroke-width="0.5" stroke="rgb(0,0,0)" stroke-opacity="1.0" x2="-4.0" y2="0.0">
            </line>
            <g transform="translate(-6.0 0.0 ) ">
              <text class="axis-text-y" text-anchor="end" dy="0.35em" y="0.0">
                <tspan>0.15</tspan>
              </text>
            </g>
          </g>
          <g transform="translate(0.0 109.81213167346655 ) ">
            <line stroke-width="0.5" stroke="rgb(0,0,0)" stroke-opacity="1.0" x2="-4.0" y2="0.0">
            </line>
            <g transform="translate(-6.0 0.0 ) ">
              <text class="axis-text-y" text-anchor="end" dy="0.35em" y="0.0">
                <tspan>0.2</tspan>
              </text>
            </g>
          </g>
          <g transform="translate(0.0 68.37415001569204 ) ">
            <line stroke-width="0.5" stroke="rgb(0,0,0)" stroke-opacity="1.0" x2="-4.0" y2="0.0">
            </line>
            <g transform="translate(-6.0 0.0 ) ">
              <text class="axis-text-y" text-anchor="end" dy="0.35em" y="0.0">
                <tspan>0.25</tspan>
              </text>
            </g>
          </g>
          <g transform="translate(0.0 26.936168357917524 ) ">
            <line stroke-width="0.5" stroke="rgb(0,0,0)" stroke-opacity="1.0" x2="-4.0" y2="0.0">
            </line>
            <g transform="translate(-6.0 0.0 ) ">
              <text class="axis-text-y" text-anchor="end" dy="0.35em" y="0.0">
                <tspan>0.3</tspan>
              </text>
            </g>
          </g>
          <line x1="0.0" y1="0.0" x2="0.0" y2="283.0" stroke-width="0.5" stroke="rgb(0,0,0)" stroke-opacity="1.0">
          </line>
        </g>
      </g>
      <g transform="translate(295.44208482268937 13.4 ) ">
        <text class="facet-strip-text-x" text-anchor="middle" y="0.0">
          <tspan>G4_2t_long</tspan>
        </text>
      </g>
    </g>
    <g transform="translate(22.0 6.0 ) ">
      <g>
        <g transform="translate(563.6369163022638 19.0 ) ">
          <g>
            <line x1="23.472257407234043" y1="0.0" x2="23.472257407234043" y2="283.0" stroke="rgb(233,233,233)" stroke-opacity="1.0" stroke-width="1.0" fill="none">
            </line>
            <line x1="91.01832188848309" y1="0.0" x2="91.01832188848309" y2="283.0" stroke="rgb(233,233,233)" stroke-opacity="1.0" stroke-width="1.0" fill="none">
            </line>
            <line x1="158.56438636973215" y1="0.0" x2="158.56438636973215" y2="283.0" stroke="rgb(233,233,233)" stroke-opacity="1.0" stroke-width="1.0" fill="none">
            </line>
            <line x1="226.11045085098118" y1="0.0" x2="226.11045085098118" y2="283.0" stroke="rgb(233,233,233)" stroke-opacity="1.0" stroke-width="1.0" fill="none">
            </line>
            <line x1="293.65651533223024" y1="0.0" x2="293.65651533223024" y2="283.0" stroke="rgb(233,233,233)" stroke-opacity="1.0" stroke-width="1.0" fill="none">
            </line>
            <line x1="361.20257981347925" y1="0.0" x2="361.20257981347925" y2="283.0" stroke="rgb(233,233,233)" stroke-opacity="1.0" stroke-width="1.0" fill="none">
            </line>
            <line x1="428.7486442947283" y1="0.0" x2="428.7486442947283" y2="283.0" stroke="rgb(233,233,233)" stroke-opacity="1.0" stroke-width="1.0" fill="none">
            </line>
            <line x1="496.29470877597737" y1="0.0" x2="496.29470877597737" y2="283.0" stroke="rgb(233,233,233)" stroke-opacity="1.0" stroke-width="1.0" fill="none">
            </line>
          </g>
        </g>
        <g transform="translate(563.6369163022638 19.0 ) ">
          <g>
            <line x1="0.0" y1="275.56405830456464" x2="516.3896629591488" y2="275.56405830456464" stroke="rgb(233,233,233)" stroke-opacity="1.0" stroke-width="1.0" fill="none">
            </line>
            <line x1="0.0" y1="234.12607664679012" x2="516.3896629591488" y2="234.12607664679012" stroke="rgb(233,233,233)" stroke-opacity="1.0" stroke-width="1.0" fill="none">
            </line>
            <line x1="0.0" y1="192.6880949890156" x2="516.3896629591488" y2="192.6880949890156" stroke="rgb(233,233,233)" stroke-opacity="1.0" stroke-width="1.0" fill="none">
            </line>
            <line x1="0.0" y1="151.25011333124107" x2="516.3896629591488" y2="151.25011333124107" stroke="rgb(233,233,233)" stroke-opacity="1.0" stroke-width="1.0" fill="none">
            </line>
            <line x1="0.0" y1="109.81213167346655" x2="516.3896629591488" y2="109.81213167346655" stroke="rgb(233,233,233)" stroke-opacity="1.0" stroke-width="1.0" fill="none">
            </line>
            <line x1="0.0" y1="68.37415001569204" x2="516.3896629591488" y2="68.37415001569204" stroke="rgb(233,233,233)" stroke-opacity="1.0" stroke-width="1.0" fill="none">
            </line>
            <line x1="0.0" y1="26.936168357917524" x2="516.3896629591488" y2="26.936168357917524" stroke="rgb(233,233,233)" stroke-opacity="1.0" stroke-width="1.0" fill="none">
            </line>
          </g>
        </g>
      </g>
      <g clip-path="url(#c6LYt06)" clip-bounds-jfx="[rect (563.6369163022638, 19.0), (516.3896629591488, 283.0)]">
        <g transform="translate(563.6369163022638 19.0 ) ">
          <g>
            <g>
              <g>
                <path d="M23.472257407234043 251.9207654667954 L23.472257407234043 251.9207654667954 L26.849560631296495 238.85473521434398 L30.226863855358946 224.1295265171368 L33.6041670794214 216.14473025174982 L36.98147030348385 205.98226227762095 L40.358773527546305 200.69363098496203 L43.736076751608756 193.33102663635844 L47.11337997567121 189.07938187167187 L50.49068319973366 183.16855866222954 L53.86798642379611 181.92417482866276 L57.24528964785857 179.33170850873194 L60.622592871921015 181.30198291187935 L63.99989609598347 177.15403679999002 L67.37719932004592 173.7319812576813 L70.75450254410838 168.65074727061688 L74.13180576817082 163.2584173251607 L77.50910899223328 147.0814274887923 L80.88641221629572 137.12635682025788 L84.26371544035818 127.06758749892623 L87.64101866442063 48.25661137302876 L91.01832188848309 15.176741130711207 L94.39562511254553 20.361673770572907 L97.77292833660799 28.03537407756818 L101.15023156067043 37.57565013491367 L104.5275347847329 48.25661137302876 L107.90483800879534 54.27113323526828 L111.2821412328578 61.94483354226355 L114.65944445692024 65.15949177897778 L118.0367476809827 71.27771229401458 L121.41405090504514 72.21100016918967 L124.7913541291076 76.25524762828178 L128.16865735317006 75.21826110030946 L131.5459605772325 79.6773031705905 L134.92326380129498 80.19579643457666 L138.30056702535742 83.92894793527705 L141.67787024941987 85.48442772723556 L145.0551734734823 84.86223581045218 L148.4324766975448 84.9659344632494 L151.80977992160723 88.59538731115256 L155.18708314566967 92.12114150625851 L158.56438636973215 93.5729226454198 L161.9416895937946 96.0616903125534 L165.31899281785704 91.39525093667788 L168.69629604191948 87.55840078318025 L172.07359926598195 93.98771725660873 L175.4509024900444 98.23936202129528 L178.82820571410684 100.1059377716455 L182.2055089381693 95.54319704856724 L185.58281216223176 101.45402025800954 L188.9601153862942 102.38730813318463 L192.33741861035665 101.86881486919847 L195.71472183441912 98.65415663248424 L199.09202505848157 99.1726498964704 L202.469328282544 95.33579974297274 L205.84663150660646 99.89854046605103 L209.22393473066893 99.89854046605103 L212.60123795473137 103.5279933139542 L215.97854117879382 102.90580139717079 L219.35584440285626 103.83908927234592 L222.73314762691874 106.12045963388505 L226.11045085098118 108.50552864822143 L229.48775407504363 105.29087041150717 L232.86505729910607 109.85361113458546 L236.24236052316854 107.1574461618574 L239.619663747231 109.43881652339653 L242.99696697129343 105.49826771710164 L246.3742701953559 112.1349814961246 L249.75157341941835 114.6237491632582 L253.1288766434808 115.03854377444713 L256.5061798675432 116.80142087200011 L259.8834830916057 113.58676263528585 L263.26078631566816 109.74991248178821 L266.6380895397306 115.76443434402776 L270.01539276379305 114.72744781605542 L273.3926959878555 115.45333838563607 L276.76999921191793 115.34963973283885 L280.1473024359804 118.77169527514752 L283.5246056600429 116.90511952479733 L286.9019088841053 117.94210605276967 L290.27921210816777 123.74923060941475 L293.65651533223024 121.98635351186178 L297.03381855629266 121.36416159507837 L300.41112178035513 118.35690066395861 L303.7884250044176 124.47512117899538 L307.16572822848 129.34895786046536 L310.5430314525425 131.52662956920724 L313.9203346766049 132.04512283319343 L317.2976379006674 130.28224573564046 L320.67494112472986 135.1560824171104 L324.05224434879227 130.3859443884377 L327.42954757285474 130.80073899962662 L330.8068507969172 133.28950666676025 L334.18415402097963 133.39320531955747 L337.5614572450421 134.32649319473256 L340.9387604691045 138.6818366122164 L344.316063693167 137.8522473898385 L347.69336691722947 137.2300554730551 L351.0706701412919 135.3634797227049 L354.44797336535436 136.40046625067725 L357.82527658941683 135.0523837643132 L361.20257981347925 137.5411514314468 L364.5798830375417 137.64485008424404 L367.9571862616042 137.5411514314468 L371.3344894856666 133.70430127794916 L374.7117927097291 137.95594604263576 L378.0890959337915 140.96320697375552 L381.46639915785397 145.00745443284762 L384.84370238191644 141.2743029321472 L388.22100560597886 140.75580966816105 L391.59830883004133 145.3185503912393 L394.9756120541038 148.53320862795357 L398.3529152781662 153.61444261501802 L401.7302185022287 159.42156717166307 L405.10752172629117 162.32512944998564 L408.4848249503536 165.43608903390262 L411.86212817441606 173.62828260488408 L415.2394313984785 182.3389694398517 L418.61673462254095 194.16061585873632 L421.9940378466034 211.4782908758743 L425.37134107066584 220.0852790580447 L428.7486442947283 221.12226558601702 L432.1259475187908 218.2187033076945 L435.5032507428532 212.9300720150356 L438.88055396691567 210.1302083895103 L442.2578571909781 201.41952155454265 L445.63516041504056 196.54568487307267 L449.01246363910303 190.11636839964422 L452.38976686316545 189.18308052446912 L455.7670700872279 189.28677917726634 L459.1443733112904 188.45718995488846 L462.5216765353528 188.76828591328018 L465.8989797594153 188.45718995488846 L469.27628298347776 191.0496562748193 L472.6535862075402 196.13089026188374 L476.03088943160265 202.7676040409067 L479.40819265566506 207.9525366807684 L482.78549587972753 218.73719657168067 L486.16279910379 225.996102267487 L489.5401023278524 239.2695298255329 L492.9174055519149 252.2318614251871 " fill="none" stroke-width="3.3000000000000003" stroke="rgb(42,31,63)" stroke-opacity="0.6980392156862745">
                </path>
              </g>
              <g>
                <path d="M23.472257407234043 259.87308644558357 L23.472257407234043 259.87308644558357 L26.849560631296495 237.17545419674303 L30.226863855358946 219.01734839767062 L33.6041670794214 215.1686194511281 L36.98147030348385 208.16195906126862 L40.358773527546305 203.2276911810859 L43.736076751608756 198.19473794329951 L47.11337997567121 196.5170868640374 L50.49068319973366 194.346008996757 L53.86798642379611 193.55652613592775 L57.24528964785857 192.76704327509853 L60.622592871921015 191.2867629110437 L63.99989609598347 189.01699968615964 L67.37719932004592 185.3656414548244 L70.75450254410838 179.83926142901979 L74.13180576817082 175.99053248247725 L77.50910899223328 168.9838720926178 L80.88641221629572 164.74040171566065 L84.26371544035818 164.14828957003874 L87.64101866442063 110.46345503365069 L91.01832188848309 12.863636363636374 L94.39562511254553 67.73269519126828 L97.77292833660799 87.07502528158457 L101.15023156067043 94.96985388987693 L104.5275347847329 106.12129929908988 L107.90483800879534 104.83838965024236 L111.2821412328578 98.7198974788158 L114.65944445692024 101.97651427973639 L118.0367476809827 105.33181643826066 L121.41405090504514 102.56862642535833 L124.7913541291076 111.9437353977055 L128.16865735317006 114.11481326498588 L131.5459605772325 112.3384768281201 L134.92326380129498 111.54899396729087 L138.30056702535742 112.14110611291281 L141.67787024941987 107.4042089479374 L145.0551734734823 109.67397217282144 L148.4324766975448 111.84505004010185 L151.80977992160723 112.93058897374203 L155.18708314566967 117.47011542351015 L158.56438636973215 112.3384768281201 L161.9416895937946 117.86485685392478 L165.31899281785704 109.27923074240681 L168.69629604191948 116.77931792028457 L172.07359926598195 124.57546117097328 L175.4509024900444 121.31884437005269 L178.82820571410684 120.52936150922343 L182.2055089381693 121.12147365484537 L185.58281216223176 124.67414652857693 L188.9601153862942 118.55565435715033 L192.33741861035665 119.24645186037594 L195.71472183441912 123.19386616452209 L199.09202505848157 125.56231474700982 L202.469328282544 131.97686299124737 L205.84663150660646 121.31884437005269 L209.22393473066893 128.52287547511946 L212.60123795473137 126.15442689263176 L215.97854117879382 133.3584579976985 L219.35584440285626 127.1412804686683 L222.73314762691874 122.20701258848555 L226.11045085098118 126.74653903825367 L229.48775407504363 126.74653903825367 L232.86505729910607 128.91761690553406 L236.24236052316854 130.49658262719254 L239.619663747231 134.83873836175334 L242.99696697129343 133.45714335530218 L246.3742701953559 127.63470725668657 L249.75157341941835 134.2466262161314 L253.1288766434808 134.0492555009241 L256.5061798675432 142.7335669700457 L259.8834830916057 138.09535516267394 L263.26078631566816 137.7006137322593 L266.6380895397306 135.1347944345643 L270.01539276379305 134.2466262161314 L273.3926959878555 139.2795794539178 L276.76999921191793 138.29272587788125 L280.1473024359804 130.20052655438158 L283.5246056600429 129.41104369355233 L286.9019088841053 138.68746730829588 L290.27921210816777 137.99666980507027 L293.65651533223024 137.99666980507027 L297.03381855629266 142.7335669700457 L300.41112178035513 140.9572305331799 L303.7884250044176 144.60858876451513 L307.16572822848 145.1020155525334 L310.5430314525425 147.07572270460648 L313.9203346766049 147.07572270460648 L317.2976379006674 139.77300624193606 L320.67494112472986 139.2795794539178 L324.05224434879227 146.87835198939916 L327.42954757285474 149.6415420023015 L330.8068507969172 152.5034173728075 L334.18415402097963 150.82576629354537 L337.5614572450421 152.00999058478922 L340.9387604691045 153.29290023363671 L344.316063693167 151.91130522718555 L347.69336691722947 159.8061338354779 L351.0706701412919 154.4771245248806 L354.44797336535436 156.8455731073683 L357.82527658941683 162.86537992119122 L361.20257981347925 160.1021899082889 L364.5798830375417 162.96406527879486 L367.9571862616042 158.02979739861215 L371.3344894856666 164.64171635805698 L374.7117927097291 159.0166509746487 L378.0890959337915 166.12199672211182 L381.46639915785397 171.64837674791647 L384.84370238191644 167.79964780137394 L388.22100560597886 173.42471318478226 L391.59830883004133 170.16809638386167 L394.9756120541038 172.8326010391603 L398.3529152781662 174.31288140321513 L401.7302185022287 172.93128639676397 L405.10752172629117 180.92480036266 L408.4848249503536 188.52357289814137 L411.86212817441606 189.70779718938525 L415.2394313984785 190.00385326219617 L418.61673462254095 194.64206506956796 L421.9940378466034 201.55004010182378 L425.37134107066584 205.30008369076265 L428.7486442947283 213.98439515988423 L432.1259475187908 212.3067440806221 L435.5032507428532 209.24749799490883 L438.88055396691567 207.86590298845766 L442.2578571909781 202.339522962653 L445.63516041504056 199.773703664958 L449.01246363910303 197.10919900965933 L452.38976686316545 195.13549185758623 L455.7670700872279 194.7407504271716 L459.1443733112904 195.72760400320817 L462.5216765353528 196.61577222164107 L465.8989797594153 198.09605258569587 L469.27628298347776 200.95792795620184 L472.6535862075402 203.91848868431148 L476.03088943160265 208.75407120689056 L479.40819265566506 212.60280015343307 L482.78549587972753 220.39894340412178 L486.16279910379 224.2476723506643 L489.5401023278524 231.4517034557311 L492.9174055519149 249.80717997001082 " fill="none" stroke-width="3.3000000000000003" stroke="rgb(167,103,148)" stroke-opacity="0.6980392156862745">
                </path>
              </g>
            </g>
            <g>
              <line x1="91.01832188848309" y1="283.0" x2="91.01832188848309" y2="0.0" stroke="rgb(71,71,71)" stroke-opacity="1.0" fill="none" stroke-width="1.6500000000000001">
              </line>
            </g>
            <g>
              <line x1="428.7486442947283" y1="283.0" x2="428.7486442947283" y2="0.0" stroke="rgb(71,71,71)" stroke-opacity="1.0" fill="none" stroke-width="1.6500000000000001">
              </line>
            </g>
          </g>
        </g>
        <defs>
          <clipPath id="cWA5dLH">
            <rect x="563.6369163022638" y="19.0" width="516.3896629591488" height="283.0">
            </rect>
          </clipPath>
        </defs>
        <defs>
          <clipPath id="cUvD8Se">
            <rect x="563.6369163022638" y="19.0" width="516.3896629591488" height="283.0">
            </rect>
          </clipPath>
        </defs>
        <defs>
          <clipPath id="c6LYt06">
            <rect x="563.6369163022638" y="19.0" width="516.3896629591488" height="283.0">
            </rect>
          </clipPath>
        </defs>
      </g>
      <g>
        <g transform="translate(563.6369163022638 302.0 ) ">
          <g transform="translate(23.472257407234043 0.0 ) ">
            <line stroke-width="1.0" stroke="rgb(71,71,71)" stroke-opacity="1.0" x2="0.0" y2="4.0">
            </line>
            <g transform="translate(0.0 6.0 ) ">
              <text class="axis-text-x" text-anchor="middle" dy="0.7em" y="0.0">
                <tspan>0</tspan>
              </text>
            </g>
          </g>
          <g transform="translate(91.01832188848309 0.0 ) ">
            <line stroke-width="1.0" stroke="rgb(71,71,71)" stroke-opacity="1.0" x2="0.0" y2="4.0">
            </line>
            <g transform="translate(0.0 6.0 ) ">
              <text class="axis-text-x" text-anchor="middle" dy="0.7em" y="0.0">
                <tspan>20</tspan>
              </text>
            </g>
          </g>
          <g transform="translate(158.56438636973215 0.0 ) ">
            <line stroke-width="1.0" stroke="rgb(71,71,71)" stroke-opacity="1.0" x2="0.0" y2="4.0">
            </line>
            <g transform="translate(0.0 6.0 ) ">
              <text class="axis-text-x" text-anchor="middle" dy="0.7em" y="0.0">
                <tspan>40</tspan>
              </text>
            </g>
          </g>
          <g transform="translate(226.11045085098118 0.0 ) ">
            <line stroke-width="1.0" stroke="rgb(71,71,71)" stroke-opacity="1.0" x2="0.0" y2="4.0">
            </line>
            <g transform="translate(0.0 6.0 ) ">
              <text class="axis-text-x" text-anchor="middle" dy="0.7em" y="0.0">
                <tspan>60</tspan>
              </text>
            </g>
          </g>
          <g transform="translate(293.65651533223024 0.0 ) ">
            <line stroke-width="1.0" stroke="rgb(71,71,71)" stroke-opacity="1.0" x2="0.0" y2="4.0">
            </line>
            <g transform="translate(0.0 6.0 ) ">
              <text class="axis-text-x" text-anchor="middle" dy="0.7em" y="0.0">
                <tspan>80</tspan>
              </text>
            </g>
          </g>
          <g transform="translate(361.20257981347925 0.0 ) ">
            <line stroke-width="1.0" stroke="rgb(71,71,71)" stroke-opacity="1.0" x2="0.0" y2="4.0">
            </line>
            <g transform="translate(0.0 6.0 ) ">
              <text class="axis-text-x" text-anchor="middle" dy="0.7em" y="0.0">
                <tspan>100</tspan>
              </text>
            </g>
          </g>
          <g transform="translate(428.7486442947283 0.0 ) ">
            <line stroke-width="1.0" stroke="rgb(71,71,71)" stroke-opacity="1.0" x2="0.0" y2="4.0">
            </line>
            <g transform="translate(0.0 6.0 ) ">
              <text class="axis-text-x" text-anchor="middle" dy="0.7em" y="0.0">
                <tspan>120</tspan>
              </text>
            </g>
          </g>
          <g transform="translate(496.29470877597737 0.0 ) ">
            <line stroke-width="1.0" stroke="rgb(71,71,71)" stroke-opacity="1.0" x2="0.0" y2="4.0">
            </line>
            <g transform="translate(0.0 6.0 ) ">
              <text class="axis-text-x" text-anchor="middle" dy="0.7em" y="0.0">
                <tspan>140</tspan>
              </text>
            </g>
          </g>
          <line x1="0.0" y1="0.0" x2="516.3896629591488" y2="0.0" stroke-width="1.0" stroke="rgb(71,71,71)" stroke-opacity="1.0">
          </line>
        </g>
        <g transform="translate(563.6369163022638 19.0 ) ">
        </g>
      </g>
      <g transform="translate(821.8317477818382 13.4 ) ">
        <text class="facet-strip-text-x" text-anchor="middle" y="0.0">
          <tspan>G4_2t_short</tspan>
        </text>
      </g>
    </g>
    <g transform="translate(15.8 166.5 ) rotate(-90.0 ) ">
      <text class="axis-title-y" y="0.0" text-anchor="middle">
        <tspan>G-quad motif profile</tspan>
      </text>
    </g>
    <g transform="translate(580.6369163022638 343.8 ) ">
      <text class="axis-title-x" y="0.0" text-anchor="middle">
        <tspan>Intron body bin</tspan>
      </text>
    </g>
    <g transform="translate(1105.0265792614127 126.5 ) ">
      <rect x="0.0" y="0.0" height="80.0" width="91.9734207385873" stroke="rgb(71,71,71)" stroke-opacity="1.0" stroke-width="0.0" fill="rgb(255,255,255)" fill-opacity="1.0">
      </rect>
      <g transform="translate(5.0 5.0 ) ">
        <g transform="translate(0.0 12.8 ) ">
          <text class="legend-title" y="0.0">
            <tspan>IR group:</tspan>
          </text>
        </g>
        <g transform="translate(0.0 24.0 ) ">
          <g transform="">
            <g>
              <g transform="translate(1.0 1.0 ) ">
                <g>
                  <line x1="0.0" y1="10.5" x2="21.0" y2="10.5" stroke="rgb(167,103,148)" stroke-opacity="1.0" fill="rgb(255,255,255)" fill-opacity="0.7" stroke-width="1.6500000000000001">
                  </line>
                </g>
              </g>
            </g>
            <g transform="translate(26.68335636406225 11.5 ) ">
              <text class="legend-item" y="0.0" dy="0.35em">
                <tspan>Spliced</tspan>
              </text>
            </g>
          </g>
          <g transform="translate(0.0 23.0 ) ">
            <g>
              <g transform="translate(1.0 1.0 ) ">
                <g>
                  <line x1="0.0" y1="10.5" x2="21.0" y2="10.5" stroke="rgb(42,31,63)" stroke-opacity="1.0" fill="rgb(255,255,255)" fill-opacity="0.7" stroke-width="1.6500000000000001">
                  </line>
                </g>
              </g>
            </g>
            <g transform="translate(26.68335636406225 11.5 ) ">
              <text class="legend-item" y="0.0" dy="0.35em">
                <tspan>Retained</tspan>
              </text>
            </g>
          </g>
        </g>
      </g>
    </g>
    <path fill="rgb(0,0,0)" fill-opacity="0.0" stroke="rgb(71,71,71)" stroke-opacity="1.0" stroke-width="0.0" d="M0.0 0.0 L0.0 350.0 L1200.0 350.0 L1200.0 0.0 Z" pointer-events="none">
    </path>
  </g>
  <g id="dVX5EMk">
  </g>
</svg>