<svg xmlns="http://www.w3.org/2000/svg" xmlns:xlink="http://www.w3.org/1999/xlink" display="block" class="plt-container" width="1200.0" height="350.0">
  <style type="text/css">
  .plt-container {
   font-family: sans-serif;
   user-select: none;
   -webkit-user-select: none;
   -moz-user-select: none;
   -ms-user-select: none;
}
text {
   text-rendering: optimizeLegibility;
}
#p86mYMM .plot-title {
fill: #474747;
font-weight: normal;
   font-style: normal;font-family: sans-serif;
font-size: 19.599999999999998px;

}
#p86mYMM .plot-subtitle {
fill: #474747;
font-weight: normal;
   font-style: normal;font-family: sans-serif;
font-size: 15.0px;

}
#p86mYMM .plot-caption {
fill: #474747;
font-weight: normal;
   font-style: normal;font-family: sans-serif;
font-size: 13.0px;

}
#p86mYMM .hyperlink-element {
fill: #118ed8;
font-weight: normal;
   font-style: normal;
}
#p86mYMM .legend-title {
fill: #474747;
font-weight: normal;
   font-style: normal;font-family: sans-serif;
font-size: 16.8px;

}
#p86mYMM .legend-item {
fill: #474747;
font-weight: normal;
   font-style: normal;font-family: sans-serif;
font-size: 12.6px;

}
#p86mYMM .axis-title-x {
fill: #474747;
font-weight: normal;
   font-style: normal;font-family: sans-serif;
font-size: 16.8px;

}
#p86mYMM .axis-text-x {
fill: #474747;
font-weight: normal;
   font-style: normal;font-family: sans-serif;
font-size: 14.0px;

}
#dPl2U2y .axis-tooltip-text-x {
fill: #ffffff;
font-weight: normal;
   font-style: normal;font-family: sans-serif;
font-size: 13.0px;

}
#p86mYMM .axis-title-y {
fill: #474747;
font-weight: normal;
   font-style: normal;font-family: sans-serif;
font-size: 16.8px;

}
#p86mYMM .axis-text-y {
fill: #474747;
font-weight: normal;
   font-style: normal;font-family: sans-serif;
font-size: 14.0px;

}
#dPl2U2y .axis-tooltip-text-y {
fill: #ffffff;
font-weight: normal;
   font-style: normal;font-family: sans-serif;
font-size: 13.0px;

}
#p86mYMM .facet-strip-text-x {
fill: #474747;
font-weight: normal;
   font-style: normal;font-family: sans-serif;
font-size: 13.0px;

}
#p86mYMM .facet-strip-text-y {
fill: #474747;
font-weight: normal;
   font-style: normal;font-family: sans-serif;
font-size: 13.0px;

}
#dPl2U2y .tooltip-text {
fill: #474747;
font-weight: normal;
   font-style: normal;font-family: sans-serif;
font-size: 13.0px;

}
#dPl2U2y .tooltip-title {
fill: #474747;
font-weight: bold;
   font-style: normal;font-family: sans-serif;
font-size: 13.0px;

}
#dPl2U2y .tooltip-label {
fill: #474747;
font-weight: bold;
   font-style: normal;font-family: sans-serif;
font-size: 13.0px;

}

  </style>
  <g id="p86mYMM">
    <path fill-rule="evenodd" fill="rgb(255,255,255)" fill-opacity="1.0" d="M1.1368683772161603E-13 0.0 L1.1368683772161603E-13 350.0 L1200.0 350.0 L1200.0 0.0 Z">
    </path>
    <g transform="translate(22.000000000000114 6.0 ) ">
      <g>
        <g transform="translate(45.84175152592688 19.0 ) ">
          <g>
            <line x1="23.276927903079223" y1="0.0" x2="23.276927903079223" y2="283.0" stroke="rgb(233,233,233)" stroke-opacity="1.0" stroke-width="1.0" fill="none">
            </line>
            <line x1="90.26089309179642" y1="0.0" x2="90.26089309179642" y2="283.0" stroke="rgb(233,233,233)" stroke-opacity="1.0" stroke-width="1.0" fill="none">
            </line>
            <line x1="157.2448582805136" y1="0.0" x2="157.2448582805136" y2="283.0" stroke="rgb(233,233,233)" stroke-opacity="1.0" stroke-width="1.0" fill="none">
            </line>
            <line x1="224.22882346923078" y1="0.0" x2="224.22882346923078" y2="283.0" stroke="rgb(233,233,233)" stroke-opacity="1.0" stroke-width="1.0" fill="none">
            </line>
            <line x1="291.212788657948" y1="0.0" x2="291.212788657948" y2="283.0" stroke="rgb(233,233,233)" stroke-opacity="1.0" stroke-width="1.0" fill="none">
            </line>
            <line x1="358.19675384666516" y1="0.0" x2="358.19675384666516" y2="283.0" stroke="rgb(233,233,233)" stroke-opacity="1.0" stroke-width="1.0" fill="none">
            </line>
            <line x1="425.18071903538237" y1="0.0" x2="425.18071903538237" y2="283.0" stroke="rgb(233,233,233)" stroke-opacity="1.0" stroke-width="1.0" fill="none">
            </line>
            <line x1="492.1646842240996" y1="0.0" x2="492.1646842240996" y2="283.0" stroke="rgb(233,233,233)" stroke-opacity="1.0" stroke-width="1.0" fill="none">
            </line>
          </g>
        </g>
        <g transform="translate(45.84175152592688 19.0 ) ">
          <g>
            <line x1="0.0" y1="270.1363636363636" x2="512.0924138677428" y2="270.1363636363636" stroke="rgb(233,233,233)" stroke-opacity="1.0" stroke-width="1.0" fill="none">
            </line>
            <line x1="0.0" y1="234.19014621741894" x2="512.0924138677428" y2="234.19014621741894" stroke="rgb(233,233,233)" stroke-opacity="1.0" stroke-width="1.0" fill="none">
            </line>
            <line x1="0.0" y1="198.24392879847423" x2="512.0924138677428" y2="198.24392879847423" stroke="rgb(233,233,233)" stroke-opacity="1.0" stroke-width="1.0" fill="none">
            </line>
            <line x1="0.0" y1="162.29771137952952" x2="512.0924138677428" y2="162.29771137952952" stroke="rgb(233,233,233)" stroke-opacity="1.0" stroke-width="1.0" fill="none">
            </line>
            <line x1="0.0" y1="126.35149396058483" x2="512.0924138677428" y2="126.35149396058483" stroke="rgb(233,233,233)" stroke-opacity="1.0" stroke-width="1.0" fill="none">
            </line>
            <line x1="0.0" y1="90.40527654164012" x2="512.0924138677428" y2="90.40527654164012" stroke="rgb(233,233,233)" stroke-opacity="1.0" stroke-width="1.0" fill="none">
            </line>
            <line x1="0.0" y1="54.459059122695436" x2="512.0924138677428" y2="54.459059122695436" stroke="rgb(233,233,233)" stroke-opacity="1.0" stroke-width="1.0" fill="none">
            </line>
            <line x1="0.0" y1="18.512841703750723" x2="512.0924138677428" y2="18.512841703750723" stroke="rgb(233,233,233)" stroke-opacity="1.0" stroke-width="1.0" fill="none">
            </line>
          </g>
        </g>
      </g>
      <g clip-path="url(#ciHuWll)" clip-bounds-jfx="[rect (45.84175152592688, 19.0), (512.0924138677428, 283.0)]">
        <g transform="translate(45.84175152592688 19.0 ) ">
          <g>
            <g>
              <g>
                <path d="M23.276927903079223 270.1363636363636 L23.276927903079223 270.1363636363636 L26.62612616251508 268.33725365543546 L29.97532442195094 267.4376986649714 L33.3245226813868 265.6385886840432 L36.67372094082266 263.83947870311505 L40.02291920025852 263.83947870311505 L43.37211745969438 262.93992371265097 L46.72131571913024 262.93992371265097 L50.0705139785661 262.0403687221869 L53.41971223800196 262.0403687221869 L56.768910497437815 261.1408137317228 L60.11810875687368 260.2412587412587 L63.46730701630953 260.2412587412587 L66.8165052757454 257.54259376986647 L70.16570353518125 252.145263827082 L73.51490179461712 249.44659885568976 L76.86410005405297 243.14971392244118 L80.21329831348883 240.45104895104893 L83.56249657292469 229.65638906547997 L86.91169483236055 222.4599491417673 L90.26089309179642 182.8795295613477 L93.61009135123227 152.29465988556896 L96.95928961066814 137.00222504767956 L100.30848787010399 125.30801017164649 L103.65768612953985 131.60489510489506 L107.0068843889757 132.50445009535918 L110.35608264841157 142.39955499046405 L113.70528090784742 134.3035600762873 L117.05447916728329 130.70534011443098 L120.40367742671914 129.8057851239669 L123.75287568615501 137.90178003814364 L127.10207394559086 124.4084551811824 L130.45127220502673 125.30801017164649 L133.8004704644626 127.10712015257468 L137.14966872389843 127.10712015257468 L140.4988669833343 121.70979020979019 L143.84806524277016 128.00667514303876 L147.19726350220603 136.10267005721548 L150.54646176164186 137.00222504767956 L153.89566002107773 141.49999999999997 L157.2448582805136 143.2991099809281 L160.59405653994943 138.80133502860772 L163.9432547993853 136.10267005721548 L167.29245305882117 145.09821996185627 L170.64165131825703 147.79688493324852 L173.99084957769287 148.6964399237126 L177.34004783712874 149.59599491417669 L180.6892460965646 145.99777495232038 L184.03844435600047 145.09821996185627 L187.38764261543633 149.59599491417669 L190.73684087487217 147.79688493324852 L194.08603913430804 149.59599491417669 L197.4352373937439 146.89732994278447 L200.78443565317977 151.39510489510485 L204.1336339126156 148.6964399237126 L207.48283217205147 154.0937698664971 L210.83203043148734 158.5915448188175 L214.1812286909232 160.39065479974568 L217.53042695035904 157.69198982835343 L220.8796252097949 160.39065479974568 L224.22882346923078 155.89287984742526 L227.57802172866664 163.08931977113792 L230.92721998810248 163.08931977113792 L234.27641824753834 168.48664971392242 L237.6256165069742 171.18531468531467 L240.97481476641008 170.28575969485058 L244.32401302584594 168.48664971392242 L247.67321128528178 169.3862047043865 L251.02240954471765 163.988874761602 L254.3716078041535 163.08931977113792 L257.7208060635894 163.08931977113792 L261.0700043230252 165.78798474253017 L264.4192025824611 168.48664971392242 L267.76840084189695 172.08486967577875 L271.1175991013328 180.18086458995546 L274.4667973607687 179.2813095994914 L277.81599562020455 178.38175460902733 L281.1651938796404 174.783534647171 L284.5143921390763 178.38175460902733 L287.86359039851214 179.2813095994914 L291.212788657948 179.2813095994914 L294.5619869173839 182.8795295613477 L297.9111851768197 183.77908455181182 L301.26038343625555 186.47774952320404 L304.6095816956914 192.77463445645262 L307.9587799551273 194.57374443738075 L311.30797821456315 194.57374443738075 L314.657176473999 196.37285441830895 L318.0063747334349 198.17196439923708 L321.35557299287075 204.46884933248566 L324.70477125230656 196.37285441830895 L328.0539695117424 202.6697393515575 L331.4031677711783 202.6697393515575 L334.75236603061416 198.17196439923708 L338.10156429005 199.97107438016525 L341.4507625494859 199.0715193897012 L344.79996080892175 203.56929434202158 L348.1491590683576 204.46884933248566 L351.4983573277935 207.1675143038779 L354.8475555872293 206.26795931341383 L358.19675384666516 208.067069294342 L361.545952106101 205.36840432294974 L364.8951503655369 209.86617927527016 L368.24434862497276 210.76573426573424 L371.5935468844086 208.067069294342 L374.9427451438445 208.067069294342 L378.29194340328036 209.86617927527016 L381.64114166271617 217.9621741894469 L384.99033992215203 220.66083916083915 L388.3395381815879 226.95772409408772 L391.68873644102376 225.15861411315956 L395.03793470045963 226.95772409408772 L398.3871329598955 228.7568340750159 L401.73633121933136 233.2546090273363 L405.0855294787672 230.55594405594405 L408.4347277382031 229.65638906547997 L411.7839259976389 233.2546090273363 L415.13312425707477 236.8528289891926 L418.48232251651064 249.44659885568976 L421.8315207759465 262.0403687221869 L425.18071903538237 267.4376986649714 L428.52991729481823 266.5381436745073 L431.8791155542541 266.5381436745073 L435.22831381368997 266.5381436745073 L438.5775120731258 267.4376986649714 L441.92671033256164 267.4376986649714 L445.2759085919975 267.4376986649714 L448.6251068514334 267.4376986649714 L451.97430511086924 268.33725365543546 L455.3235033703051 268.33725365543546 L458.67270162974097 268.33725365543546 L462.02189988917684 268.33725365543546 L465.3710981486127 268.33725365543546 L468.7202964080485 268.33725365543546 L472.0694946674844 268.33725365543546 L475.41869292692024 268.33725365543546 L478.7678911863561 268.33725365543546 L482.117089445792 268.33725365543546 L485.46628770522784 270.1363636363636 L488.8154859646637 270.1363636363636 " fill="none" stroke-width="3.3000000000000003" stroke="rgb(42,31,63)" stroke-opacity="0.6980392156862745">
                </path>
              </g>
              <g>
                <path d="M23.276927903079223 269.28029749159236 L23.276927903079223 269.28029749159236 L26.62612616251508 269.28029749159236 L29.97532442195094 269.28029749159236 L33.3245226813868 268.4242313468211 L36.67372094082266 268.4242313468211 L40.02291920025852 266.71209905727864 L43.37211745969438 266.71209905727864 L46.72131571913024 266.71209905727864 L50.0705139785661 265.8560329125074 L53.41971223800196 265.8560329125074 L56.768910497437815 264.9999667677361 L60.11810875687368 264.9999667677361 L63.46730701630953 263.28783447819364 L66.8165052757454 262.4317683334224 L70.16570353518125 262.4317683334224 L73.51490179461712 262.4317683334224 L76.86410005405297 256.43930532002366 L80.21329831348883 253.8711068857099 L83.56249657292469 244.4543792932262 L86.91169483236055 241.0301147141412 L90.26089309179642 146.86283878930394 L93.61009135123227 163.9841616847289 L96.95928961066814 181.96155072492508 L100.30848787010399 186.24188144878133 L103.65768612953985 187.95401373832385 L107.0068843889757 175.11302156675512 L110.35608264841157 175.11302156675512 L113.70528090784742 172.54482313244137 L117.05447916728329 171.6887569876701 L120.40367742671914 164.84022782950012 L123.75287568615501 165.69629397427138 L127.10207394559086 173.40088927721263 L130.45127220502673 178.53728614584008 L133.8004704644626 179.39335229061135 L137.14966872389843 175.11302156675512 L140.4988669833343 181.10548458015384 L143.84806524277016 176.82515385629762 L147.19726350220603 177.68122000106885 L150.54646176164186 176.82515385629762 L153.89566002107773 180.2494184353826 L157.2448582805136 180.2494184353826 L160.59405653994943 182.81761686969634 L163.9432547993853 180.2494184353826 L167.29245305882117 175.11302156675512 L170.64165131825703 177.68122000106885 L173.99084957769287 179.39335229061135 L177.34004783712874 170.8326908428989 L180.6892460965646 171.6887569876701 L184.03844435600047 180.2494184353826 L187.38764261543633 177.68122000106885 L190.73684087487217 181.96155072492508 L194.08603913430804 185.3858153040101 L197.4352373937439 184.52974915923886 L200.78443565317977 184.52974915923886 L204.1336339126156 191.3782783174088 L207.48283217205147 192.23434446218008 L210.83203043148734 193.0904106069513 L214.1812286909232 194.80254289649383 L217.53042695035904 193.94647675172257 L220.8796252097949 195.65860904126504 L224.22882346923078 199.9389397651213 L227.57802172866664 199.9389397651213 L230.92721998810248 198.22680747557882 L234.27641824753834 192.23434446218008 L237.6256165069742 195.65860904126504 L240.97481476641008 195.65860904126504 L244.32401302584594 196.5146751860363 L247.67321128528178 195.65860904126504 L251.02240954471765 201.6510720546638 L254.3716078041535 199.08287362035006 L257.7208060635894 200.79500590989255 L261.0700043230252 202.50713819943505 L264.4192025824611 202.50713819943505 L267.76840084189695 202.50713819943505 L271.1175991013328 207.64353506806253 L274.4667973607687 204.21927048897754 L277.81599562020455 207.64353506806253 L281.1651938796404 205.93140277852004 L284.5143921390763 208.4996012128338 L287.86359039851214 211.06779964714752 L291.212788657948 212.77993193669002 L294.5619869173839 220.48452723963126 L297.9111851768197 222.19665952917376 L301.26038343625555 221.3405933844025 L304.6095816956914 217.9163288053175 L307.9587799551273 222.19665952917376 L311.30797821456315 222.19665952917376 L314.657176473999 226.47699025302998 L318.0063747334349 223.90879181871622 L321.35557299287075 227.33305639780124 L324.70477125230656 229.04518868734374 L328.0539695117424 233.32551941119996 L331.4031677711783 231.61338712165747 L334.75236603061416 239.3179824245987 L338.10156429005 241.0301147141412 L341.4507625494859 240.17404856936994 L344.79996080892175 237.6058501350562 L348.1491590683576 244.4543792932262 L351.4983573277935 246.1665115827687 L354.8475555872293 247.02257772753993 L358.19675384666516 245.31044543799743 L361.545952106101 248.73471001708242 L364.8951503655369 249.59077616185368 L368.24434862497276 247.8786438723112 L371.5935468844086 246.1665115827687 L374.9427451438445 249.59077616185368 L378.29194340328036 252.1589745961674 L381.64114166271617 256.43930532002366 L384.99033992215203 255.5832391752524 L388.3395381815879 249.59077616185368 L391.68873644102376 249.59077616185368 L395.03793470045963 250.44684230662492 L398.3871329598955 249.59077616185368 L401.73633121933136 252.1589745961674 L405.0855294787672 260.7196360438799 L408.4347277382031 261.5757021886511 L411.7839259976389 263.28783447819364 L415.13312425707477 263.28783447819364 L418.48232251651064 259.86356989910865 L421.8315207759465 264.9999667677361 L425.18071903538237 269.28029749159236 L428.52991729481823 269.28029749159236 L431.8791155542541 269.28029749159236 L435.22831381368997 269.28029749159236 L438.5775120731258 269.28029749159236 L441.92671033256164 269.28029749159236 L445.2759085919975 269.28029749159236 L448.6251068514334 269.28029749159236 L451.97430511086924 269.28029749159236 L455.3235033703051 269.28029749159236 L458.67270162974097 269.28029749159236 L462.02189988917684 269.28029749159236 L465.3710981486127 269.28029749159236 L468.7202964080485 269.28029749159236 L472.0694946674844 269.28029749159236 L475.41869292692024 269.28029749159236 L478.7678911863561 270.1363636363636 L482.117089445792 270.1363636363636 L485.46628770522784 270.1363636363636 L488.8154859646637 270.1363636363636 " fill="none" stroke-width="3.3000000000000003" stroke="rgb(167,103,148)" stroke-opacity="0.6980392156862745">
                </path>
              </g>
            </g>
            <g>
              <line x1="90.26089309179642" y1="283.0" x2="90.26089309179642" y2="0.0" stroke="rgb(71,71,71)" stroke-opacity="1.0" fill="none" stroke-width="1.6500000000000001">
              </line>
            </g>
            <g>
              <line x1="425.18071903538237" y1="283.0" x2="425.18071903538237" y2="0.0" stroke="rgb(71,71,71)" stroke-opacity="1.0" fill="none" stroke-width="1.6500000000000001">
              </line>
            </g>
          </g>
        </g>
        <defs>
          <clipPath id="cITPKMA">
            <rect x="45.84175152592688" y="19.0" width="512.0924138677428" height="283.0">
            </rect>
          </clipPath>
        </defs>
        <defs>
          <clipPath id="curdezB">
            <rect x="45.84175152592688" y="19.0" width="512.0924138677428" height="283.0">
            </rect>
          </clipPath>
        </defs>
        <defs>
          <clipPath id="ciHuWll">
            <rect x="45.84175152592688" y="19.0" width="512.0924138677428" height="283.0">
            </rect>
          </clipPath>
        </defs>
      </g>
      <g>
        <g transform="translate(45.84175152592688 302.0 ) ">
          <g transform="translate(23.276927903079223 0.0 ) ">
            <line stroke-width="1.0" stroke="rgb(71,71,71)" stroke-opacity="1.0" x2="0.0" y2="4.0">
            </line>
            <g transform="translate(0.0 6.0 ) ">
              <text class="axis-text-x" text-anchor="middle" dy="0.7em" y="0.0">
                <tspan>0</tspan>
              </text>
            </g>
          </g>
          <g transform="translate(90.26089309179642 0.0 ) ">
            <line stroke-width="1.0" stroke="rgb(71,71,71)" stroke-opacity="1.0" x2="0.0" y2="4.0">
            </line>
            <g transform="translate(0.0 6.0 ) ">
              <text class="axis-text-x" text-anchor="middle" dy="0.7em" y="0.0">
                <tspan>20</tspan>
              </text>
            </g>
          </g>
          <g transform="translate(157.2448582805136 0.0 ) ">
            <line stroke-width="1.0" stroke="rgb(71,71,71)" stroke-opacity="1.0" x2="0.0" y2="4.0">
            </line>
            <g transform="translate(0.0 6.0 ) ">
              <text class="axis-text-x" text-anchor="middle" dy="0.7em" y="0.0">
                <tspan>40</tspan>
              </text>
            </g>
          </g>
          <g transform="translate(224.22882346923078 0.0 ) ">
            <line stroke-width="1.0" stroke="rgb(71,71,71)" stroke-opacity="1.0" x2="0.0" y2="4.0">
            </line>
            <g transform="translate(0.0 6.0 ) ">
              <text class="axis-text-x" text-anchor="middle" dy="0.7em" y="0.0">
                <tspan>60</tspan>
              </text>
            </g>
          </g>
          <g transform="translate(291.212788657948 0.0 ) ">
            <line stroke-width="1.0" stroke="rgb(71,71,71)" stroke-opacity="1.0" x2="0.0" y2="4.0">
            </line>
            <g transform="translate(0.0 6.0 ) ">
              <text class="axis-text-x" text-anchor="middle" dy="0.7em" y="0.0">
                <tspan>80</tspan>
              </text>
            </g>
          </g>
          <g transform="translate(358.19675384666516 0.0 ) ">
            <line stroke-width="1.0" stroke="rgb(71,71,71)" stroke-opacity="1.0" x2="0.0" y2="4.0">
            </line>
            <g transform="translate(0.0 6.0 ) ">
              <text class="axis-text-x" text-anchor="middle" dy="0.7em" y="0.0">
                <tspan>100</tspan>
              </text>
            </g>
          </g>
          <g transform="translate(425.18071903538237 0.0 ) ">
            <line stroke-width="1.0" stroke="rgb(71,71,71)" stroke-opacity="1.0" x2="0.0" y2="4.0">
            </line>
            <g transform="translate(0.0 6.0 ) ">
              <text class="axis-text-x" text-anchor="middle" dy="0.7em" y="0.0">
                <tspan>120</tspan>
              </text>
            </g>
          </g>
          <g transform="translate(492.1646842240996 0.0 ) ">
            <line stroke-width="1.0" stroke="rgb(71,71,71)" stroke-opacity="1.0" x2="0.0" y2="4.0">
            </line>
            <g transform="translate(0.0 6.0 ) ">
              <text class="axis-text-x" text-anchor="middle" dy="0.7em" y="0.0">
                <tspan>140</tspan>
              </text>
            </g>
          </g>
          <line x1="0.0" y1="0.0" x2="512.0924138677428" y2="0.0" stroke-width="1.0" stroke="rgb(71,71,71)" stroke-opacity="1.0">
          </line>
        </g>
        <g transform="translate(45.84175152592688 19.0 ) ">
          <g transform="translate(0.0 270.1363636363636 ) ">
            <line stroke-width="0.5" stroke="rgb(0,0,0)" stroke-opacity="1.0" x2="-4.0" y2="0.0">
            </line>
            <g transform="translate(-6.0 0.0 ) ">
              <text class="axis-text-y" text-anchor="end" dy="0.35em" y="0.0">
                <tspan>0</tspan>
              </text>
            </g>
          </g>
          <g transform="translate(0.0 234.19014621741894 ) ">
            <line stroke-width="0.5" stroke="rgb(0,0,0)" stroke-opacity="1.0" x2="-4.0" y2="0.0">
            </line>
            <g transform="translate(-6.0 0.0 ) ">
              <text class="axis-text-y" text-anchor="end" dy="0.35em" y="0.0">
                <tspan>0.005</tspan>
              </text>
            </g>
          </g>
          <g transform="translate(0.0 198.24392879847423 ) ">
            <line stroke-width="0.5" stroke="rgb(0,0,0)" stroke-opacity="1.0" x2="-4.0" y2="0.0">
            </line>
            <g transform="translate(-6.0 0.0 ) ">
              <text class="axis-text-y" text-anchor="end" dy="0.35em" y="0.0">
                <tspan>0.01</tspan>
              </text>
            </g>
          </g>
          <g transform="translate(0.0 162.29771137952952 ) ">
            <line stroke-width="0.5" stroke="rgb(0,0,0)" stroke-opacity="1.0" x2="-4.0" y2="0.0">
            </line>
            <g transform="translate(-6.0 0.0 ) ">
              <text class="axis-text-y" text-anchor="end" dy="0.35em" y="0.0">
                <tspan>0.015</tspan>
              </text>
            </g>
          </g>
          <g transform="translate(0.0 126.35149396058483 ) ">
            <line stroke-width="0.5" stroke="rgb(0,0,0)" stroke-opacity="1.0" x2="-4.0" y2="0.0">
            </line>
            <g transform="translate(-6.0 0.0 ) ">
              <text class="axis-text-y" text-anchor="end" dy="0.35em" y="0.0">
                <tspan>0.02</tspan>
              </text>
            </g>
          </g>
          <g transform="translate(0.0 90.40527654164012 ) ">
            <line stroke-width="0.5" stroke="rgb(0,0,0)" stroke-opacity="1.0" x2="-4.0" y2="0.0">
            </line>
            <g transform="translate(-6.0 0.0 ) ">
              <text class="axis-text-y" text-anchor="end" dy="0.35em" y="0.0">
                <tspan>0.025</tspan>
              </text>
            </g>
          </g>
          <g transform="translate(0.0 54.459059122695436 ) ">
            <line stroke-width="0.5" stroke="rgb(0,0,0)" stroke-opacity="1.0" x2="-4.0" y2="0.0">
            </line>
            <g transform="translate(-6.0 0.0 ) ">
              <text class="axis-text-y" text-anchor="end" dy="0.35em" y="0.0">
                <tspan>0.03</tspan>
              </text>
            </g>
          </g>
          <g transform="translate(0.0 18.512841703750723 ) ">
            <line stroke-width="0.5" stroke="rgb(0,0,0)" stroke-opacity="1.0" x2="-4.0" y2="0.0">
            </line>
            <g transform="translate(-6.0 0.0 ) ">
              <text class="axis-text-y" text-anchor="end" dy="0.35em" y="0.0">
                <tspan>0.035</tspan>
              </text>
            </g>
          </g>
          <line x1="0.0" y1="0.0" x2="0.0" y2="283.0" stroke-width="0.5" stroke="rgb(0,0,0)" stroke-opacity="1.0">
          </line>
        </g>
      </g>
      <g transform="translate(301.8879584597983 13.4 ) ">
        <text class="facet-strip-text-x" text-anchor="middle" y="0.0">
          <tspan>G4_3t_long</tspan>
        </text>
      </g>
    </g>
    <g transform="translate(22.000000000000114 6.0 ) ">
      <g>
        <g transform="translate(567.9341653936697 19.0 ) ">
          <g>
            <line x1="23.276927903079223" y1="0.0" x2="23.276927903079223" y2="283.0" stroke="rgb(233,233,233)" stroke-opacity="1.0" stroke-width="1.0" fill="none">
            </line>
            <line x1="90.26089309179642" y1="0.0" x2="90.26089309179642" y2="283.0" stroke="rgb(233,233,233)" stroke-opacity="1.0" stroke-width="1.0" fill="none">
            </line>
            <line x1="157.2448582805136" y1="0.0" x2="157.2448582805136" y2="283.0" stroke="rgb(233,233,233)" stroke-opacity="1.0" stroke-width="1.0" fill="none">
            </line>
            <line x1="224.22882346923078" y1="0.0" x2="224.22882346923078" y2="283.0" stroke="rgb(233,233,233)" stroke-opacity="1.0" stroke-width="1.0" fill="none">
            </line>
            <line x1="291.212788657948" y1="0.0" x2="291.212788657948" y2="283.0" stroke="rgb(233,233,233)" stroke-opacity="1.0" stroke-width="1.0" fill="none">
            </line>
            <line x1="358.19675384666516" y1="0.0" x2="358.19675384666516" y2="283.0" stroke="rgb(233,233,233)" stroke-opacity="1.0" stroke-width="1.0" fill="none">
            </line>
            <line x1="425.18071903538237" y1="0.0" x2="425.18071903538237" y2="283.0" stroke="rgb(233,233,233)" stroke-opacity="1.0" stroke-width="1.0" fill="none">
            </line>
            <line x1="492.1646842240996" y1="0.0" x2="492.1646842240996" y2="283.0" stroke="rgb(233,233,233)" stroke-opacity="1.0" stroke-width="1.0" fill="none">
            </line>
          </g>
        </g>
        <g transform="translate(567.9341653936697 19.0 ) ">
          <g>
            <line x1="0.0" y1="270.1363636363636" x2="512.0924138677428" y2="270.1363636363636" stroke="rgb(233,233,233)" stroke-opacity="1.0" stroke-width="1.0" fill="none">
            </line>
            <line x1="0.0" y1="234.19014621741894" x2="512.0924138677428" y2="234.19014621741894" stroke="rgb(233,233,233)" stroke-opacity="1.0" stroke-width="1.0" fill="none">
            </line>
            <line x1="0.0" y1="198.24392879847423" x2="512.0924138677428" y2="198.24392879847423" stroke="rgb(233,233,233)" stroke-opacity="1.0" stroke-width="1.0" fill="none">
            </line>
            <line x1="0.0" y1="162.29771137952952" x2="512.0924138677428" y2="162.29771137952952" stroke="rgb(233,233,233)" stroke-opacity="1.0" stroke-width="1.0" fill="none">
            </line>
            <line x1="0.0" y1="126.35149396058483" x2="512.0924138677428" y2="126.35149396058483" stroke="rgb(233,233,233)" stroke-opacity="1.0" stroke-width="1.0" fill="none">
            </line>
            <line x1="0.0" y1="90.40527654164012" x2="512.0924138677428" y2="90.40527654164012" stroke="rgb(233,233,233)" stroke-opacity="1.0" stroke-width="1.0" fill="none">
            </line>
            <line x1="0.0" y1="54.459059122695436" x2="512.0924138677428" y2="54.459059122695436" stroke="rgb(233,233,233)" stroke-opacity="1.0" stroke-width="1.0" fill="none">
            </line>
            <line x1="0.0" y1="18.512841703750723" x2="512.0924138677428" y2="18.512841703750723" stroke="rgb(233,233,233)" stroke-opacity="1.0" stroke-width="1.0" fill="none">
            </line>
          </g>
        </g>
      </g>
      <g clip-path="url(#cEYiLBV)" clip-bounds-jfx="[rect (567.9341653936697, 19.0), (512.0924138677428, 283.0)]">
        <g transform="translate(567.9341653936697 19.0 ) ">
          <g>
            <g>
              <g>
                <path d="M23.276927903079223 270.1363636363636 L23.276927903079223 270.1363636363636 L26.62612616251508 268.33725365543546 L29.97532442195094 265.6385886840432 L33.3245226813868 264.73903369357913 L36.67372094082266 263.83947870311505 L40.02291920025852 263.83947870311505 L43.37211745969438 263.83947870311505 L46.72131571913024 263.83947870311505 L50.0705139785661 262.0403687221869 L53.41971223800196 262.0403687221869 L56.768910497437815 262.0403687221869 L60.11810875687368 262.93992371265097 L63.46730701630953 263.83947870311505 L66.8165052757454 262.93992371265097 L70.16570353518125 261.1408137317228 L73.51490179461712 259.34170375079464 L76.86410005405297 254.84392879847422 L80.21329831348883 250.34615384615384 L83.56249657292469 230.55594405594405 L86.91169483236055 214.36395422759057 L90.26089309179642 82.12937062937058 L93.61009135123227 18.260966306420784 L96.95928961066814 12.863636363636317 L100.30848787010399 20.95963127781303 L103.65768612953985 21.859186268277142 L107.0068843889757 17.36141131595673 L110.35608264841157 21.859186268277142 L113.70528090784742 23.658296249205307 L117.05447916728329 30.85473617291794 L120.40367742671914 37.151621106166516 L123.75287568615501 41.64939605848693 L127.10207394559086 46.14717101080734 L130.45127220502673 38.0511760966306 L133.8004704644626 40.74984106802282 L137.14966872389843 56.04227590591222 L140.4988669833343 53.34361093451997 L143.84806524277016 57.841385886840385 L147.19726350220603 68.63604577240937 L150.54646176164186 51.54450095359181 L153.89566002107773 67.73649078194529 L157.2448582805136 65.9373808010171 L160.59405653994943 66.83693579148118 L163.9432547993853 64.13827082008896 L167.29245305882117 69.53560076287346 L170.64165131825703 72.23426573426568 L173.99084957769287 83.02892561983467 L177.34004783712874 79.43070565797834 L180.6892460965646 70.43515575333754 L184.03844435600047 68.63604577240937 L187.38764261543633 67.73649078194529 L190.73684087487217 79.43070565797834 L194.08603913430804 78.53115066751425 L197.4352373937439 90.2253655435473 L200.78443565317977 88.42625556261916 L204.1336339126156 83.02892561983467 L207.48283217205147 82.12937062937058 L210.83203043148734 92.02447552447549 L214.1812286909232 83.92848061029875 L217.53042695035904 79.43070565797834 L220.8796252097949 88.42625556261916 L224.22882346923078 94.72314049586774 L227.57802172866664 108.21646535282895 L230.92721998810248 105.5178003814367 L234.27641824753834 99.22091544818815 L237.6256165069742 105.5178003814367 L240.97481476641008 100.1204704386522 L244.32401302584594 101.02002542911629 L247.67321128528178 110.01557533375711 L251.02240954471765 117.21201525746977 L254.3716078041535 120.8102352193261 L257.7208060635894 107.31691036236487 L261.0700043230252 117.21201525746977 L264.4192025824611 119.01112523839791 L267.76840084189695 126.20756516211057 L271.1175991013328 137.00222504767956 L274.4667973607687 133.40400508582323 L277.81599562020455 135.2031150667514 L281.1651938796404 141.49999999999997 L284.5143921390763 148.6964399237126 L287.86359039851214 149.59599491417669 L291.212788657948 138.80133502860772 L294.5619869173839 147.79688493324852 L297.9111851768197 155.89287984742526 L301.26038343625555 152.29465988556896 L304.6095816956914 157.69198982835343 L307.9587799551273 166.68753973299425 L311.30797821456315 169.3862047043865 L314.657176473999 171.18531468531467 L318.0063747334349 159.4910998092816 L321.35557299287075 163.08931977113792 L324.70477125230656 154.99332485696118 L328.0539695117424 157.69198982835343 L331.4031677711783 167.58709472345834 L334.75236603061416 159.4910998092816 L338.10156429005 161.29020979020976 L341.4507625494859 163.988874761602 L344.79996080892175 167.58709472345834 L348.1491590683576 162.18976478067384 L351.4983573277935 157.69198982835343 L354.8475555872293 156.79243483788935 L358.19675384666516 151.39510489510485 L361.545952106101 159.4910998092816 L364.8951503655369 157.69198982835343 L368.24434862497276 160.39065479974568 L371.5935468844086 158.5915448188175 L374.9427451438445 169.3862047043865 L378.29194340328036 171.18531468531467 L381.64114166271617 167.58709472345834 L384.99033992215203 172.98442466624283 L388.3395381815879 184.6786395422759 L391.68873644102376 190.07596948506037 L395.03793470045963 188.2768595041322 L398.3871329598955 183.77908455181182 L401.73633121933136 192.77463445645262 L405.0855294787672 189.1764144945963 L408.4347277382031 207.1675143038779 L411.7839259976389 201.7701843610934 L415.13312425707477 207.1675143038779 L418.48232251651064 222.4599491417673 L421.8315207759465 249.44659885568976 L425.18071903538237 269.23680864589954 L428.52991729481823 267.4376986649714 L431.8791155542541 266.5381436745073 L435.22831381368997 265.6385886840432 L438.5775120731258 265.6385886840432 L441.92671033256164 265.6385886840432 L445.2759085919975 263.83947870311505 L448.6251068514334 263.83947870311505 L451.97430511086924 262.93992371265097 L455.3235033703051 262.93992371265097 L458.67270162974097 262.0403687221869 L462.02189988917684 262.93992371265097 L465.3710981486127 263.83947870311505 L468.7202964080485 264.73903369357913 L472.0694946674844 264.73903369357913 L475.41869292692024 264.73903369357913 L478.7678911863561 264.73903369357913 L482.117089445792 265.6385886840432 L485.46628770522784 266.5381436745073 L488.8154859646637 268.33725365543546 " fill="none" stroke-width="3.3000000000000003" stroke="rgb(42,31,63)" stroke-opacity="0.6980392156862745">
                </path>
              </g>
              <g>
                <path d="M23.276927903079223 269.28029749159236 L23.276927903079223 269.28029749159236 L26.62612616251508 268.4242313468211 L29.97532442195094 267.5681652020499 L33.3245226813868 267.5681652020499 L36.67372094082266 267.5681652020499 L40.02291920025852 267.5681652020499 L43.37211745969438 267.5681652020499 L46.72131571913024 267.5681652020499 L50.0705139785661 266.71209905727864 L53.41971223800196 265.8560329125074 L56.768910497437815 264.9999667677361 L60.11810875687368 264.9999667677361 L63.46730701630953 265.8560329125074 L66.8165052757454 265.8560329125074 L70.16570353518125 265.8560329125074 L73.51490179461712 265.8560329125074 L76.86410005405297 261.5757021886511 L80.21329831348883 259.86356989910865 L83.56249657292469 253.8711068857099 L86.91169483236055 248.73471001708242 L90.26089309179642 45.847033706296685 L93.61009135123227 74.9532826285191 L96.95928961066814 92.07460552394406 L100.30848787010399 114.33232528799653 L103.65768612953985 113.47625914322526 L107.0068843889757 111.76412685368277 L110.35608264841157 113.47625914322526 L113.70528090784742 110.9080607089115 L117.05447916728329 119.46872215662401 L120.40367742671914 116.04445757753902 L123.75287568615501 111.76412685368277 L127.10207394559086 110.05199456414027 L130.45127220502673 110.05199456414027 L133.8004704644626 112.620192998454 L137.14966872389843 113.47625914322526 L140.4988669833343 107.48379612982654 L143.84806524277016 103.20346540597029 L147.19726350220603 106.62772998505528 L150.54646176164186 108.33986227459778 L153.89566002107773 115.18839143276776 L157.2448582805136 104.05953155074153 L160.59405653994943 110.05199456414027 L163.9432547993853 97.21100239257157 L167.29245305882117 109.19592841936904 L170.64165131825703 107.48379612982654 L173.99084957769287 103.20346540597029 L177.34004783712874 95.49887010302905 L180.6892460965646 98.92313468211407 L184.03844435600047 105.77166384028405 L187.38764261543633 97.21100239257157 L190.73684087487217 106.62772998505528 L194.08603913430804 107.48379612982654 L197.4352373937439 108.33986227459778 L200.78443565317977 104.05953155074153 L204.1336339126156 115.18839143276776 L207.48283217205147 122.03692059093774 L210.83203043148734 116.90052372231025 L214.1812286909232 134.0218466177352 L217.53042695035904 123.74905288048024 L220.8796252097949 114.33232528799653 L224.22882346923078 118.61265601185275 L227.57802172866664 122.892986735709 L230.92721998810248 124.6051190252515 L234.27641824753834 120.32478830139527 L237.6256165069742 135.7339789072777 L240.97481476641008 136.59004505204896 L244.32401302584594 131.45364818342145 L247.67321128528178 129.74151589387898 L251.02240954471765 141.72644192067645 L254.3716078041535 137.44611119682023 L257.7208060635894 142.58250806544768 L261.0700043230252 142.58250806544768 L264.4192025824611 141.72644192067645 L267.76840084189695 148.57497107884643 L271.1175991013328 148.57497107884643 L274.4667973607687 155.4235002370164 L277.81599562020455 164.84022782950012 L281.1651938796404 166.55236011904265 L284.5143921390763 173.40088927721263 L287.86359039851214 167.40842626381388 L291.212788657948 174.25695542198386 L294.5619869173839 179.39335229061135 L297.9111851768197 187.95401373832385 L301.26038343625555 193.94647675172257 L304.6095816956914 183.6736830144676 L307.9587799551273 187.95401373832385 L311.30797821456315 187.95401373832385 L314.657176473999 187.0979475935526 L318.0063747334349 188.81007988309509 L321.35557299287075 194.80254289649383 L324.70477125230656 206.78746892329127 L328.0539695117424 210.21173350237626 L331.4031677711783 205.07533663374878 L334.75236603061416 205.07533663374878 L338.10156429005 213.63599808146128 L341.4507625494859 211.9238657919188 L344.79996080892175 208.4996012128338 L348.1491590683576 221.3405933844025 L351.4983573277935 229.04518868734374 L354.8475555872293 229.04518868734374 L358.19675384666516 223.052725673945 L361.545952106101 225.62092410825875 L364.8951503655369 231.61338712165747 L368.24434862497276 225.62092410825875 L371.5935468844086 227.33305639780124 L374.9427451438445 235.03765170074246 L378.29194340328036 229.04518868734374 L381.64114166271617 224.7648579634875 L384.99033992215203 232.46945326642873 L388.3395381815879 230.7573209768862 L391.68873644102376 222.19665952917376 L395.03793470045963 231.61338712165747 L398.3871329598955 231.61338712165747 L401.73633121933136 240.17404856936994 L405.0855294787672 241.88618085891244 L408.4347277382031 241.88618085891244 L411.7839259976389 241.0301147141412 L415.13312425707477 235.89371784551372 L418.48232251651064 234.18158555597122 L421.8315207759465 242.7422470036837 L425.18071903538237 263.28783447819364 L428.52991729481823 263.28783447819364 L431.8791155542541 263.28783447819364 L435.22831381368997 259.86356989910865 L438.5775120731258 259.86356989910865 L441.92671033256164 259.86356989910865 L445.2759085919975 257.2953714647949 L448.6251068514334 255.5832391752524 L451.97430511086924 255.5832391752524 L455.3235033703051 256.43930532002366 L458.67270162974097 256.43930532002366 L462.02189988917684 256.43930532002366 L465.3710981486127 259.86356989910865 L468.7202964080485 259.86356989910865 L472.0694946674844 261.5757021886511 L475.41869292692024 261.5757021886511 L478.7678911863561 263.28783447819364 L482.117089445792 263.28783447819364 L485.46628770522784 263.28783447819364 L488.8154859646637 265.8560329125074 " fill="none" stroke-width="3.3000000000000003" stroke="rgb(167,103,148)" stroke-opacity="0.6980392156862745">
                </path>
              </g>
            </g>
            <g>
              <line x1="90.26089309179642" y1="283.0" x2="90.26089309179642" y2="0.0" stroke="rgb(71,71,71)" stroke-opacity="1.0" fill="none" stroke-width="1.6500000000000001">
              </line>
            </g>
            <g>
              <line x1="425.18071903538237" y1="283.0" x2="425.18071903538237" y2="0.0" stroke="rgb(71,71,71)" stroke-opacity="1.0" fill="none" stroke-width="1.6500000000000001">
              </line>
            </g>
          </g>
        </g>
        <defs>
          <clipPath id="crKlQCS">
            <rect x="567.9341653936697" y="19.0" width="512.0924138677428" height="283.0">
            </rect>
          </clipPath>
        </defs>
        <defs>
          <clipPath id="ckoO7pJ">
            <rect x="567.9341653936697" y="19.0" width="512.0924138677428" height="283.0">
            </rect>
          </clipPath>
        </defs>
        <defs>
          <clipPath id="cEYiLBV">
            <rect x="567.9341653936697" y="19.0" width="512.0924138677428" height="283.0">
            </rect>
          </clipPath>
        </defs>
      </g>
      <g>
        <g transform="translate(567.9341653936697 302.0 ) ">
          <g transform="translate(23.276927903079223 0.0 ) ">
            <line stroke-width="1.0" stroke="rgb(71,71,71)" stroke-opacity="1.0" x2="0.0" y2="4.0">
            </line>
            <g transform="translate(0.0 6.0 ) ">
              <text class="axis-text-x" text-anchor="middle" dy="0.7em" y="0.0">
                <tspan>0</tspan>
              </text>
            </g>
          </g>
          <g transform="translate(90.26089309179642 0.0 ) ">
            <line stroke-width="1.0" stroke="rgb(71,71,71)" stroke-opacity="1.0" x2="0.0" y2="4.0">
            </line>
            <g transform="translate(0.0 6.0 ) ">
              <text class="axis-text-x" text-anchor="middle" dy="0.7em" y="0.0">
                <tspan>20</tspan>
              </text>
            </g>
          </g>
          <g transform="translate(157.2448582805136 0.0 ) ">
            <line stroke-width="1.0" stroke="rgb(71,71,71)" stroke-opacity="1.0" x2="0.0" y2="4.0">
            </line>
            <g transform="translate(0.0 6.0 ) ">
              <text class="axis-text-x" text-anchor="middle" dy="0.7em" y="0.0">
                <tspan>40</tspan>
              </text>
            </g>
          </g>
          <g transform="translate(224.22882346923078 0.0 ) ">
            <line stroke-width="1.0" stroke="rgb(71,71,71)" stroke-opacity="1.0" x2="0.0" y2="4.0">
            </line>
            <g transform="translate(0.0 6.0 ) ">
              <text class="axis-text-x" text-anchor="middle" dy="0.7em" y="0.0">
                <tspan>60</tspan>
              </text>
            </g>
          </g>
          <g transform="translate(291.212788657948 0.0 ) ">
            <line stroke-width="1.0" stroke="rgb(71,71,71)" stroke-opacity="1.0" x2="0.0" y2="4.0">
            </line>
            <g transform="translate(0.0 6.0 ) ">
              <text class="axis-text-x" text-anchor="middle" dy="0.7em" y="0.0">
                <tspan>80</tspan>
              </text>
            </g>
          </g>
          <g transform="translate(358.19675384666516 0.0 ) ">
            <line stroke-width="1.0" stroke="rgb(71,71,71)" stroke-opacity="1.0" x2="0.0" y2="4.0">
            </line>
            <g transform="translate(0.0 6.0 ) ">
              <text class="axis-text-x" text-anchor="middle" dy="0.7em" y="0.0">
                <tspan>100</tspan>
              </text>
            </g>
          </g>
          <g transform="translate(425.18071903538237 0.0 ) ">
            <line stroke-width="1.0" stroke="rgb(71,71,71)" stroke-opacity="1.0" x2="0.0" y2="4.0">
            </line>
            <g transform="translate(0.0 6.0 ) ">
              <text class="axis-text-x" text-anchor="middle" dy="0.7em" y="0.0">
                <tspan>120</tspan>
              </text>
            </g>
          </g>
          <g transform="translate(492.1646842240996 0.0 ) ">
            <line stroke-width="1.0" stroke="rgb(71,71,71)" stroke-opacity="1.0" x2="0.0" y2="4.0">
            </line>
            <g transform="translate(0.0 6.0 ) ">
              <text class="axis-text-x" text-anchor="middle" dy="0.7em" y="0.0">
                <tspan>140</tspan>
              </text>
            </g>
          </g>
          <line x1="0.0" y1="0.0" x2="512.0924138677428" y2="0.0" stroke-width="1.0" stroke="rgb(71,71,71)" stroke-opacity="1.0">
          </line>
        </g>
        <g transform="translate(567.9341653936697 19.0 ) ">
        </g>
      </g>
      <g transform="translate(823.9803723275411 13.4 ) ">
        <text class="facet-strip-text-x" text-anchor="middle" y="0.0">
          <tspan>G4_3t_short</tspan>
        </text>
      </g>
    </g>
    <g transform="translate(15.800000000000114 166.5 ) rotate(-90.0 ) ">
      <text class="axis-title-y" y="0.0" text-anchor="middle">
        <tspan>G-quad motif profile</tspan>
      </text>
    </g>
    <g transform="translate(584.9341653936698 343.8 ) ">
      <text class="axis-title-x" y="0.0" text-anchor="middle">
        <tspan>Intron body bin</tspan>
      </text>
    </g>
    <g transform="translate(1105.0265792614127 126.5 ) ">
      <rect x="0.0" y="0.0" height="80.0" width="91.9734207385873" stroke="rgb(71,71,71)" stroke-opacity="1.0" stroke-width="0.0" fill="rgb(255,255,255)" fill-opacity="1.0">
      </rect>
      <g transform="translate(5.0 5.0 ) ">
        <g transform="translate(0.0 12.8 ) ">
          <text class="legend-title" y="0.0">
            <tspan>IR group:</tspan>
          </text>
        </g>
        <g transform="translate(0.0 24.0 ) ">
          <g transform="">
            <g>
              <g transform="translate(1.0 1.0 ) ">
                <g>
                  <line x1="0.0" y1="10.5" x2="21.0" y2="10.5" stroke="rgb(167,103,148)" stroke-opacity="1.0" fill="rgb(255,255,255)" fill-opacity="0.7" stroke-width="1.6500000000000001">
                  </line>
                </g>
              </g>
            </g>
            <g transform="translate(26.68335636406225 11.5 ) ">
              <text class="legend-item" y="0.0" dy="0.35em">
                <tspan>Spliced</tspan>
              </text>
            </g>
          </g>
          <g transform="translate(0.0 23.0 ) ">
            <g>
              <g transform="translate(1.0 1.0 ) ">
                <g>
                  <line x1="0.0" y1="10.5" x2="21.0" y2="10.5" stroke="rgb(42,31,63)" stroke-opacity="1.0" fill="rgb(255,255,255)" fill-opacity="0.7" stroke-width="1.6500000000000001">
                  </line>
                </g>
              </g>
            </g>
            <g transform="translate(26.68335636406225 11.5 ) ">
              <text class="legend-item" y="0.0" dy="0.35em">
                <tspan>Retained</tspan>
              </text>
            </g>
          </g>
        </g>
      </g>
    </g>
    <path fill="rgb(0,0,0)" fill-opacity="0.0" stroke="rgb(71,71,71)" stroke-opacity="1.0" stroke-width="0.0" d="M1.1368683772161603E-13 0.0 L1.1368683772161603E-13 350.0 L1200.0 350.0 L1200.0 0.0 Z" pointer-events="none">
    </path>
  </g>
  <g id="dPl2U2y">
  </g>
</svg>